0
SECTION
2
HEADER
9
$ACADVER
1
AC1015
0
ENDSEC
0
SECTION
2
ENTITIES
0
CIRCLE
8
OUTLINE
10
50
20
70
30
0
40
40
0
CIRCLE
8
CENTER
10
50
20
70
30
0
40
15
0
CIRCLE
8
BOLTS
10
71.21320343559643
20
91.21320343559643
30
0
40
4
0
CIRCLE
8
BOLTS
10
28.786796564403577
20
91.21320343559643
30
0
40
4
0
CIRCLE
8
BOLTS
10
28.78679656440357
20
48.78679656440357
30
0
40
4
0
CIRCLE
8
BOLTS
10
71.21320343559643
20
48.78679656440357
30
0
40
4
0
LINE
8
CENTER
10
2
20
70
30
0
11
98
21
70
31
0
0
LINE
8
CENTER
10
50
20
22
30
0
11
50
21
118
31
0
0
TEXT
8
0
10
32
20
120
30
0
40
4
1
FRONT VIEW
0
TEXT
8
0
10
8
20
112
30
0
40
2.5
1
FLANGE: OD 80, BORE 30, 4-DIA8 HOLES ON PCD 60
0
LINE
8
0
10
125
20
55
30
0
11
205
21
55
31
0
0
LINE
8
0
10
125
20
85
30
0
11
205
21
85
31
0
0
LINE
8
0
10
125
20
55
30
0
11
125
21
85
31
0
0
LINE
8
0
10
205
20
55
30
0
11
205
21
85
31
0
0
LINE
8
CENTER
10
165
20
50
30
0
11
165
21
90
31
0
0
LINE
8
HIDDEN
10
135
20
62
30
0
11
195
21
62
31
0
0
LINE
8
HIDDEN
10
135
20
78
30
0
11
195
21
78
31
0
0
TEXT
8
0
10
145
20
92
30
0
40
4
1
TOP VIEW
0
LINE
8
0
10
10
20
-15
30
0
11
10
21
-7
31
0
0
LINE
8
0
10
10
20
-7
30
0
11
30
21
-7
31
0
0
LINE
8
0
10
30
20
-7
30
0
11
30
21
5
31
0
0
LINE
8
0
10
30
20
5
30
0
11
70
21
5
31
0
0
LINE
8
0
10
70
20
5
30
0
11
70
21
-7
31
0
0
LINE
8
0
10
70
20
-7
30
0
11
90
21
-7
31
0
0
LINE
8
0
10
90
20
-7
30
0
11
90
21
-15
31
0
0
LINE
8
0
10
10
20
-15
30
0
11
90
21
-15
31
0
0
LINE
8
CENTER
10
50
20
-23
30
0
11
50
21
13
31
0
0
TEXT
8
0
10
35
20
22
30
0
40
4
1
SIDE VIEW
0
TEXT
8
0
10
110
20
35
30
0
40
3.5
1
GENERAL NOTES
0
TEXT
8
0
10
110
20
29
30
0
40
2.5
1
1. ALL DIMENSIONS IN mm
0
TEXT
8
0
10
110
20
24
30
0
40
2.5
1
2. 4 HOLES: DIA8 THRU, EQUALLY SPACED
0
TEXT
8
0
10
110
20
19
30
0
40
2.5
1
3. MATERIAL: MILD STEEL
0
TEXT
8
0
10
110
20
14
30
0
40
2.5
1
4. REMOVE SHARP EDGES
0
TEXT
8
0
10
15
20
-25
30
0
40
4
1
CODEALPHA - AUTOCAD TASK 2
0
ENDSEC
0
EOF